<svg width="32" height="32" version="1" xmlns="http://www.w3.org/2000/svg"><g transform="matrix(.91242 0 0 .91242 1.4013026 1.6537216)"><rect style="opacity:.2" width="28" height="29" x="2" y="2" rx="4.1999998" ry="4.1999998"/><rect style="fill:#0286e3;fill-opacity:1" width="28" height="29" x="2" y="1" rx="4.1999998" ry="4.1999998"/><path style="opacity:.1;fill:#fff" d="M6.1992188 1C3.8724189 1 2 2.8724189 2 5.1992188v1C2 3.8724189 3.8724189 2 6.1992188 2H25.800781C28.127581 2 30 3.8724189 30 6.1992188v-1C30 2.8724189 28.127581 1 25.800781 1Z"/><text xml:space="preserve" style="font-size:26.9514px;font-family:'Roboto Slab';-inkscape-font-specification:'Roboto Slab';opacity:.2;fill:#000;fill-opacity:1;stroke:none;stroke-width:42.808;stroke-linejoin:round;stroke-dasharray:none" x="7.6854787" y="26.417761" transform="translate(.21518099 -.33798856)"><tspan x="7.6854787" y="26.417761" style="font-weight:400;fill:#000;fill-opacity:1;stroke-width:42.808;stroke-dasharray:none">S</tspan></text><text xml:space="preserve" style="font-size:26.9514px;font-family:'Roboto Slab';-inkscape-font-specification:'Roboto Slab';fill:#fff;fill-opacity:1;stroke:none;stroke-width:42.8078;stroke-linejoin:round;stroke-dasharray:none" x="7.6843672" y="25.418978" transform="translate(.21518099 -.33798856)"><tspan x="7.6843672" y="25.418978" style="font-style:normal;font-weight:400;fill:#fff;fill-opacity:1;stroke-width:42.8078">S</tspan></text></g></svg>